<?xml version="1.0" standalone="no"?>
<!DOCTYPE svg PUBLIC "-//W3C//DTD SVG 20010904//EN"
 "http://www.w3.org/TR/2001/REC-SVG-20010904/DTD/svg10.dtd">
<svg version="1.0" xmlns="http://www.w3.org/2000/svg"
 width="160.000000pt" height="160.000000pt" viewBox="0 0 160.000000 160.000000"
 preserveAspectRatio="xMidYMid meet">

<g transform="translate(0.000000,160.000000) scale(0.100000,-0.100000)"
fill="#000000" stroke="none">
<path d="M1 801 l0 -800 799 0 799 0 0 800 1 799 -395 0 -394 0 -3 -102 -3
-103 -53 -1 -52 -1 50 4 50 4 0 98 0 98 -399 2 -400 2 0 -800z m662 782 c-7
-2 -19 -2 -25 0 -7 3 -2 5 12 5 14 0 19 -2 13 -5z m-46 -9 c-3 -3 -12 -4 -19
-1 -8 3 -5 6 6 6 11 1 17 -2 13 -5z m-82 -23 c-219 -79 -403 -261 -486 -484
-10 -28 -17 -38 -14 -22 10 54 83 189 139 257 61 74 151 153 222 194 56 33
153 74 174 73 8 0 -7 -8 -35 -18z m110 -176 c-27 -8 -51 -12 -53 -10 -6 5 58
23 83 23 11 0 -2 -6 -30 -13z m-115 -46 c-30 -16 -73 -44 -95 -61 -33 -25 -35
-26 -15 -5 27 28 137 97 154 97 6 0 -14 -14 -44 -31z m-184 -146 c-25 -32 -59
-83 -75 -113 -17 -30 -31 -50 -31 -44 0 16 63 117 105 169 54 65 55 55 1 -12z
m-319 -195 c-3 -8 -6 -5 -6 6 -1 11 2 17 5 13 3 -3 4 -12 1 -19z m198 -33 c-7
-28 -14 -43 -14 -35 -1 19 19 93 24 88 2 -2 -2 -26 -10 -53z m-208 -17 c-3 -7
-5 -2 -5 12 0 14 2 19 5 13 2 -7 2 -19 0 -25z m190 -190 c-2 -29 -3 -6 -3 52
0 58 1 81 3 53 2 -29 2 -77 0 -105z m1190 -25 c-2 -16 -4 -3 -4 27 0 30 2 43
4 28 2 -16 2 -40 0 -55z m-1162 -131 c-5 -5 -25 69 -24 88 0 8 7 -7 14 -35 8
-27 12 -51 10 -53z m1145 38 c-15 -57 -21 -46 -7 14 6 27 13 44 15 38 2 -6 -2
-29 -8 -52z m-1363 8 c-3 -7 -5 -2 -5 12 0 14 2 19 5 13 2 -7 2 -19 0 -25z
m1570 0 c-3 -7 -5 -2 -5 12 0 14 2 19 5 13 2 -7 2 -19 0 -25z m-1560 -40 c-3
-8 -6 -5 -6 6 -1 11 2 17 5 13 3 -3 4 -12 1 -19z m1550 0 c-3 -8 -6 -5 -6 6
-1 11 2 17 5 13 3 -3 4 -12 1 -19z m-1484 -163 c84 -166 256 -318 440 -386 28
-10 39 -17 22 -14 -54 10 -189 83 -257 139 -37 31 -93 87 -124 124 -56 68
-129 203 -139 257 -3 17 3 9 13 -20 11 -27 31 -73 45 -100z m239 0 c25 -33 26
-35 5 -15 -28 27 -97 137 -97 154 0 6 14 -14 31 -44 16 -30 44 -73 61 -95z
m1002 85 c-15 -28 -43 -68 -61 -88 -34 -37 -34 -37 3 13 20 28 46 69 57 92 12
24 23 41 25 38 2 -2 -9 -27 -24 -55z m216 -12 c-44 -118 -135 -240 -249 -335
-68 -56 -202 -128 -256 -138 -16 -3 -6 4 22 14 223 83 423 285 484 490 7 24
15 39 16 34 2 -6 -5 -35 -17 -65z m-1020 -238 c30 -18 46 -29 35 -25 -35 11
-118 65 -165 107 -44 39 -43 39 15 -6 33 -25 85 -59 115 -76z m670 80 c-48
-41 -132 -95 -165 -105 -11 -4 5 7 35 24 30 17 80 51 110 76 68 55 81 58 20 5z
m-530 -132 c18 -5 13 -6 -15 -2 -22 3 -47 10 -55 15 -16 10 24 3 70 -13z m330
13 c-8 -5 -33 -12 -55 -15 l-40 -6 45 14 c53 17 71 19 50 7z m-147 -28 c-29
-2 -77 -2 -105 0 -29 2 -6 3 52 3 58 0 81 -1 53 -3z m-236 -179 c-3 -3 -12 -4
-19 -1 -8 3 -5 6 6 6 11 1 17 -2 13 -5z m390 0 c-3 -3 -12 -4 -19 -1 -8 3 -5
6 6 6 11 1 17 -2 13 -5z m-344 -11 c-7 -2 -19 -2 -25 0 -7 3 -2 5 12 5 14 0
19 -2 13 -5z m300 0 c-7 -2 -19 -2 -25 0 -7 3 -2 5 12 5 14 0 19 -2 13 -5z"/>
</g>
</svg>
